<mxfile host="app.diagrams.net" modified="2024-04-29T01:33:29.759Z" agent="Mozilla/5.0 (Windows NT 10.0; Win64; x64) AppleWebKit/537.36 (KHTML, like Gecko) Chrome/124.0.0.0 Safari/537.36" etag="GFSzy0N7fZ39G5AuOmaa" version="24.3.0" type="device">
  <diagram name="페이지-1" id="LQekdjgSRmOpQykcRgpu">
    <mxGraphModel dx="1674" dy="738" grid="1" gridSize="10" guides="1" tooltips="1" connect="1" arrows="1" fold="1" page="1" pageScale="1" pageWidth="827" pageHeight="1169" math="0" shadow="0">
      <root>
        <mxCell id="0" />
        <mxCell id="1" parent="0" />
        <mxCell id="jwzSyTRxlPfVlrSpjOS_-1" value="Code" style="rounded=0;whiteSpace=wrap;html=1;" vertex="1" parent="1">
          <mxGeometry x="180" y="300" width="120" height="60" as="geometry" />
        </mxCell>
        <mxCell id="jwzSyTRxlPfVlrSpjOS_-2" value="Github" style="rounded=0;whiteSpace=wrap;html=1;" vertex="1" parent="1">
          <mxGeometry x="380" y="300" width="120" height="60" as="geometry" />
        </mxCell>
        <mxCell id="jwzSyTRxlPfVlrSpjOS_-3" value="Github Action" style="rounded=0;whiteSpace=wrap;html=1;" vertex="1" parent="1">
          <mxGeometry x="580" y="300" width="120" height="60" as="geometry" />
        </mxCell>
        <mxCell id="jwzSyTRxlPfVlrSpjOS_-4" value="Registry" style="rounded=0;whiteSpace=wrap;html=1;" vertex="1" parent="1">
          <mxGeometry x="780" y="300" width="120" height="60" as="geometry" />
        </mxCell>
        <mxCell id="jwzSyTRxlPfVlrSpjOS_-5" value="배포 서버" style="rounded=0;whiteSpace=wrap;html=1;" vertex="1" parent="1">
          <mxGeometry x="780" y="450" width="120" height="60" as="geometry" />
        </mxCell>
        <mxCell id="jwzSyTRxlPfVlrSpjOS_-6" value="" style="shape=flexArrow;endArrow=classic;html=1;rounded=0;" edge="1" parent="1">
          <mxGeometry width="50" height="50" relative="1" as="geometry">
            <mxPoint x="310" y="329.5" as="sourcePoint" />
            <mxPoint x="370" y="329.5" as="targetPoint" />
          </mxGeometry>
        </mxCell>
        <mxCell id="jwzSyTRxlPfVlrSpjOS_-7" value="" style="shape=flexArrow;endArrow=classic;html=1;rounded=0;" edge="1" parent="1">
          <mxGeometry width="50" height="50" relative="1" as="geometry">
            <mxPoint x="510" y="329.5" as="sourcePoint" />
            <mxPoint x="570" y="329.5" as="targetPoint" />
          </mxGeometry>
        </mxCell>
        <mxCell id="jwzSyTRxlPfVlrSpjOS_-8" value="" style="shape=flexArrow;endArrow=classic;html=1;rounded=0;" edge="1" parent="1">
          <mxGeometry width="50" height="50" relative="1" as="geometry">
            <mxPoint x="710" y="329.5" as="sourcePoint" />
            <mxPoint x="770" y="329.5" as="targetPoint" />
          </mxGeometry>
        </mxCell>
        <mxCell id="jwzSyTRxlPfVlrSpjOS_-9" value="" style="shape=flexArrow;endArrow=classic;html=1;rounded=0;" edge="1" parent="1">
          <mxGeometry width="50" height="50" relative="1" as="geometry">
            <mxPoint x="839.5" y="430" as="sourcePoint" />
            <mxPoint x="839.5" y="380" as="targetPoint" />
          </mxGeometry>
        </mxCell>
        <mxCell id="jwzSyTRxlPfVlrSpjOS_-10" value="CI" style="shape=note;whiteSpace=wrap;html=1;backgroundOutline=1;darkOpacity=0.05;" vertex="1" parent="1">
          <mxGeometry x="360" y="140" width="80" height="100" as="geometry" />
        </mxCell>
        <mxCell id="jwzSyTRxlPfVlrSpjOS_-11" value="CD" style="shape=note;whiteSpace=wrap;html=1;backgroundOutline=1;darkOpacity=0.05;" vertex="1" parent="1">
          <mxGeometry x="550" y="140" width="80" height="100" as="geometry" />
        </mxCell>
        <mxCell id="jwzSyTRxlPfVlrSpjOS_-13" value="" style="endArrow=none;dashed=1;html=1;dashPattern=1 3;strokeWidth=2;rounded=0;" edge="1" parent="1">
          <mxGeometry width="50" height="50" relative="1" as="geometry">
            <mxPoint x="740" y="550" as="sourcePoint" />
            <mxPoint x="740" y="250" as="targetPoint" />
          </mxGeometry>
        </mxCell>
        <mxCell id="jwzSyTRxlPfVlrSpjOS_-14" value="&lt;b&gt;VPN 접속 필요&lt;/b&gt;" style="text;html=1;align=center;verticalAlign=middle;whiteSpace=wrap;rounded=0;" vertex="1" parent="1">
          <mxGeometry x="610" y="430" width="100" height="30" as="geometry" />
        </mxCell>
        <mxCell id="jwzSyTRxlPfVlrSpjOS_-15" value="" style="shape=flexArrow;endArrow=classic;html=1;rounded=0;" edge="1" parent="1">
          <mxGeometry width="50" height="50" relative="1" as="geometry">
            <mxPoint x="650" y="370" as="sourcePoint" />
            <mxPoint x="760" y="480" as="targetPoint" />
          </mxGeometry>
        </mxCell>
      </root>
    </mxGraphModel>
  </diagram>
</mxfile>
